<?xml version="1.0" encoding="UTF-8" standalone="no"?>
<svg
   xmlns:dc="http://purl.org/dc/elements/1.1/"
   xmlns:cc="http://creativecommons.org/ns#"
   xmlns:rdf="http://www.w3.org/1999/02/22-rdf-syntax-ns#"
   xmlns:svg="http://www.w3.org/2000/svg"
   xmlns="http://www.w3.org/2000/svg"
   version="1.1"
   id="svg3033"
   height="1122.5197"
   width="793.70081">
  <defs
     id="defs3035" />
  <metadata
     id="metadata3038">
    <rdf:RDF>
      <cc:Work
         rdf:about="">
        <dc:format>image/svg+xml</dc:format>
        <dc:type
           rdf:resource="http://purl.org/dc/dcmitype/StillImage" />
        <dc:title></dc:title>
        <dc:creator>
          <cc:Agent>
            <dc:title>Jaschon</dc:title>
          </cc:Agent>
        </dc:creator>
        <cc:license
           rdf:resource="http://creativecommons.org/licenses/publicdomain/" />
      </cc:Work>
      <cc:License
         rdf:about="http://creativecommons.org/licenses/publicdomain/">
        <cc:permits
           rdf:resource="http://creativecommons.org/ns#Reproduction" />
        <cc:permits
           rdf:resource="http://creativecommons.org/ns#Distribution" />
        <cc:permits
           rdf:resource="http://creativecommons.org/ns#DerivativeWorks" />
      </cc:License>
    </rdf:RDF>
  </metadata>
  <g
     id="layer1">
    <path
       style="clip-rule:evenodd;fill:url(#linearGradient3793);fill-opacity:1;fill-rule:evenodd;stroke:#000000;stroke-width:1.06666672;stroke-opacity:1"
       id="path11"
       d="m 17.956186,107.75608 c 0,3.1636 3.551182,6.7937 6.304916,7.3218 0,0 2.944658,0.7458 5.367809,0.1491 0.437754,0.1 7.783788,-1.2677 7.930619,-11.2607 L 36.010198,91.804683 c 1.032466,-0.1791 4.401376,-1.8286 5.441226,-2.4551 2.853521,-1.7196 4.102015,-4.2032 5.213594,-6.0405 1.248282,-2.7594 1.982655,-4.643 1.982655,-7.647 0,-7.5977 -6.062519,-13.7561 -13.54104,-13.7561 -1.077823,0 -2.125057,0.1298 -3.131151,0.3715 l -1.336467,-9.7605 c 5.060853,-5.7138 10.190904,-12.7373 11.91365,-19.1732 1.688991,-8.5016 0.881204,-14.2437 -3.59823,-16.7048 -4.112142,-0.9694 -9.10401,4.7356 -12.042761,12.976 -1.909239,4.3999 0.522983,12.8059 1.615575,16.2573 -8.049393,7.8365 -16.057856,13.4565 -16.889061,27.038 0,10.6359 8.487145,19.2567 18.95568,19.2567 1.000187,0 2.65247,0.024 4.532174,-0.2237 l 0.884156,12.145097 c 0,0 0.339233,8.8834 -6.317998,10.0871 -2.642132,0.4773 -5.190386,1.0305 -4.457281,-0.7456 2.059024,-1.089 4.457281,-2.8251 4.457281,-5.6738 0,-3.5451 -2.627575,-6.4193 -5.867374,-6.4193 -3.241064,0 -5.86864,2.8742 -5.86864,6.4193 z m 11.901833,-54.358997 1.246808,9.1189 c -5.523502,1.7347 -9.537333,6.9654 -9.537333,13.1461 0,6.995 8.23483,10.2571 8.011629,8.5969 -3.210475,-1.4065 -4.400109,-2.9875 -4.400109,-6.764 0,-4.2687 2.872718,-7.8542 6.760182,-8.8759 l 2.965121,21.7102 c -0.666862,0.1834 -1.386465,0.3386 -2.166195,0.4624 -11.283494,-0.2297 -16.586957,-6.3285 -16.586957,-16.9642 2.45e-4,-5.9583 6.908698,-12.8312 13.706854,-20.4304 z m 5.912945,36.6655 -2.956472,-21.6267 c 0.45231,-0.072 0.917911,-0.1104 1.390896,-0.1104 4.984484,0 9.026164,4.1061 9.026164,9.1697 -0.09979,4.0748 -0.290921,10.1421 -7.460588,12.5674 z m -6.288673,-45.5324 c -2.034131,-6.9697 -0.195355,-10.4434 0.998499,-13.1133 2.821243,-6.3045 5.303254,-8.597 7.830833,-10.6433 3.286843,1.3095 1.803333,10.6433 1.309886,10.6433 -1.547855,5.5066 -7.100681,9.8841 -10.139218,13.1133 z" />
  </g>
</svg>
