<?xml version="1.0" encoding="UTF-8" standalone="no"?>
<svg
   xmlns:dc="http://purl.org/dc/elements/1.1/"
   xmlns:cc="http://creativecommons.org/ns#"
   xmlns:rdf="http://www.w3.org/1999/02/22-rdf-syntax-ns#"
   xmlns:svg="http://www.w3.org/2000/svg"
   xmlns="http://www.w3.org/2000/svg"
   id="svg5054"
   version="1.1"
   height="297"
   width="210">
  <defs
     id="defs5058" />
  <metadata
     id="metadata5">image/svg+xml<rdf:RDF>
  <cc:Work
     rdf:about="">
    <dc:format>image/svg+xml</dc:format>
    <dc:type
       rdf:resource="http://purl.org/dc/dcmitype/StillImage" />
    <dc:title></dc:title>
  </cc:Work>
</rdf:RDF>
</metadata>
  <rect
     stroke-miterlimit="4"
     y="5.9851804"
     x="7.2553849"
     height="149.8"
     width="149.8"
     id="rect4485"
     style="fill:none;stroke:#0000ff;stroke-width:0.2;stroke-miterlimit:4" />
  <circle
     stroke-miterlimit="4"
     r="59.900002"
     cy="80.885178"
     cx="82.155388"
     id="path4487"
     style="fill:none;stroke:#0000ff;stroke-width:0.20000003;stroke-miterlimit:4" />
  <path
     style="clip-rule:evenodd;fill:url(#linearGradient3793);fill-opacity:1;fill-rule:evenodd;stroke:#000000;stroke-width:1.06666672;stroke-opacity:1"
     id="path11"
     d="m 69.968641,122.64403 c 0,3.1636 3.551181,6.7937 6.304915,7.3218 0,0 2.944658,0.7458 5.367809,0.1491 0.437754,0.1 7.783784,-1.2677 7.930624,-11.2607 l -1.549337,-12.1616 c 1.032467,-0.1791 4.401377,-1.8286 5.441227,-2.4551 2.85352,-1.7196 4.10201,-4.2032 5.21359,-6.040502 1.24829,-2.7594 1.982661,-4.643 1.982661,-7.647 0,-7.5977 -6.062521,-13.7561 -13.541043,-13.7561 -1.077823,0 -2.125057,0.1298 -3.131151,0.3715 l -1.336467,-9.7605 c 5.060853,-5.7138 10.1909,-12.737297 11.91365,-19.173197 1.68899,-8.501599 0.8812,-14.243699 -3.59823,-16.704799 -4.112142,-0.9694 -9.10401,4.7356 -12.042761,12.975999 -1.909239,4.3999 0.522983,12.8059 1.615575,16.2573 -8.049392,7.836497 -16.057855,13.456497 -16.88906,27.037997 0,10.6359 8.487145,19.256702 18.955679,19.256702 1.000187,0 2.65247,0.024 4.532174,-0.2237 l 0.884156,12.1451 c 0,0 0.339233,8.8834 -6.317998,10.0871 -2.642132,0.4773 -5.190386,1.0305 -4.457281,-0.7456 2.059024,-1.089 4.457281,-2.8251 4.457281,-5.6738 0,-3.5451 -2.627575,-6.4193 -5.867374,-6.4193 -3.241063,0 -5.868639,2.8742 -5.868639,6.4193 z m 11.901832,-54.359002 1.246808,9.1189 c -5.523502,1.7347 -9.537333,6.9654 -9.537333,13.1461 0,6.995 8.23483,10.257102 8.011629,8.5969 -3.210475,-1.4065 -4.400109,-2.9875 -4.400109,-6.764 0,-4.2687 2.872718,-7.8542 6.760182,-8.8759 l 2.965121,21.710202 c -0.666862,0.1834 -1.386465,0.3386 -2.166195,0.4624 -11.283494,-0.2297 -16.586956,-6.328502 -16.586956,-16.964202 2.45e-4,-5.9583 6.908697,-12.8312 13.706853,-20.4304 z m 5.912945,36.665502 -2.956472,-21.626702 c 0.45231,-0.072 0.917911,-0.1104 1.390896,-0.1104 4.984487,0 9.026167,4.1061 9.026167,9.1697 -0.0998,4.0748 -0.29092,10.142102 -7.460591,12.567402 z M 81.494745,59.418131 c -2.034131,-6.9697 -0.195355,-10.4434 0.998499,-13.1133 2.821243,-6.304499 5.303254,-8.596999 7.830835,-10.643299 3.28684,1.3095 1.80333,10.643299 1.30988,10.643299 -1.54785,5.5066 -7.100677,9.8841 -10.139214,13.1133 z" />
  <path
     d="m 18.336066,13.293321 q 0,1.189453 -0.521485,2.15625 -0.515625,0.966796 -1.376953,1.5 -0.597656,0.36914 -1.335937,0.533203 -0.732422,0.164062 -1.933594,0.164062 H 10.964972 V 8.922227 h 2.179687 q 1.277344,0 2.027344,0.1875 0.755859,0.18164 1.277344,0.503906 0.890625,0.556641 1.388672,1.482422 0.498047,0.925781 0.498047,2.197266 z m -1.212891,-0.01758 q 0,-1.02539 -0.357422,-1.728515 Q 16.408331,10.844101 15.699347,10.439804 15.183722,10.146835 14.603644,10.035507 14.023566,9.91832 13.214972,9.91832 h -1.089844 v 6.732421 h 1.089844 q 0.83789,0 1.458984,-0.123046 0.626953,-0.123047 1.148438,-0.457032 0.65039,-0.416015 0.972656,-1.095703 0.328125,-0.679687 0.328125,-1.699219 z"
     style="font-style:normal;font-weight:normal;font-size:medium;line-height:1.25;font-family:sans-serif;letter-spacing:0px;word-spacing:0px;fill:none;fill-opacity:1;stroke:#000000;stroke-opacity:1"
     id="path5629" />
  <path
     d="m 24.218878,12.303086 h -0.05859 q -0.246093,-0.05859 -0.480468,-0.08203 -0.228516,-0.0293 -0.544922,-0.0293 -0.509766,0 -0.984375,0.228516 -0.47461,0.222656 -0.914063,0.580078 v 4.646484 h -1.101562 v -6.544922 h 1.101562 v 0.966797 q 0.65625,-0.527344 1.154297,-0.74414 0.503906,-0.222657 1.025391,-0.222657 0.287109,0 0.416015,0.01758 0.128907,0.01172 0.386719,0.05273 z"
     style="font-style:normal;font-weight:normal;font-size:medium;line-height:1.25;font-family:sans-serif;letter-spacing:0px;word-spacing:0px;fill:none;fill-opacity:1;stroke:#000000;stroke-opacity:1"
     id="path5631" />
  <path
     d="m 30.142706,17.646836 h -1.095703 v -0.697265 q -0.146484,0.09961 -0.398437,0.28125 -0.246094,0.175781 -0.480469,0.28125 -0.275391,0.134765 -0.632813,0.222656 -0.357422,0.09375 -0.83789,0.09375 -0.884766,0 -1.5,-0.585938 -0.615235,-0.585937 -0.615235,-1.49414 0,-0.744141 0.316407,-1.201172 0.322265,-0.462891 0.914062,-0.726563 0.597656,-0.263672 1.435547,-0.357422 0.837891,-0.09375 1.798828,-0.140625 v -0.169921 q 0,-0.375 -0.134766,-0.621094 -0.128906,-0.246094 -0.375,-0.386719 -0.234375,-0.134766 -0.5625,-0.181641 -0.328125,-0.04687 -0.685546,-0.04687 -0.433594,0 -0.966797,0.117188 -0.533203,0.111328 -1.101563,0.328125 h -0.05859 v -1.119141 q 0.322266,-0.08789 0.931641,-0.193359 0.609375,-0.105469 1.201172,-0.105469 0.691406,0 1.201172,0.117188 0.515625,0.111328 0.890625,0.386718 0.36914,0.269532 0.5625,0.697266 0.193359,0.427734 0.193359,1.060547 z m -1.095703,-1.611328 v -1.822266 q -0.503906,0.0293 -1.189453,0.08789 -0.679688,0.05859 -1.078125,0.169922 -0.474609,0.134766 -0.767578,0.421875 -0.292969,0.28125 -0.292969,0.779297 0,0.5625 0.339844,0.849609 0.339844,0.28125 1.037109,0.28125 0.580078,0 1.060547,-0.222656 0.480469,-0.228516 0.890625,-0.544921 z"
     style="font-style:normal;font-weight:normal;font-size:medium;line-height:1.25;font-family:sans-serif;letter-spacing:0px;word-spacing:0px;fill:none;fill-opacity:1;stroke:#000000;stroke-opacity:1"
     id="path5633" />
  <path
     d="m 40.461066,11.101914 -1.705079,6.544922 h -1.019531 l -1.68164,-5.044922 -1.669922,5.044922 h -1.013672 l -1.722656,-6.544922 h 1.148437 l 1.201172,5.06836 1.634766,-5.06836 h 0.908203 l 1.675781,5.06836 1.136719,-5.06836 z"
     style="font-style:normal;font-weight:normal;font-size:medium;line-height:1.25;font-family:sans-serif;letter-spacing:0px;word-spacing:0px;fill:none;fill-opacity:1;stroke:#000000;stroke-opacity:1"
     id="path5635" />
  <path
     d="M 47.521612,17.646836 H 46.42005 v -3.726562 q 0,-0.451172 -0.05273,-0.84375 -0.05273,-0.398438 -0.19336,-0.621094 -0.146484,-0.246094 -0.421875,-0.363281 -0.27539,-0.123047 -0.714844,-0.123047 -0.451171,0 -0.943359,0.222656 -0.492187,0.222656 -0.943359,0.568359 v 4.886719 H 42.04896 v -6.544922 h 1.101563 v 0.726563 q 0.515625,-0.427735 1.066406,-0.667969 0.550781,-0.240234 1.130859,-0.240234 1.060547,0 1.617188,0.638672 0.55664,0.638671 0.55664,1.839843 z"
     style="font-style:normal;font-weight:normal;font-size:medium;line-height:1.25;font-family:sans-serif;letter-spacing:0px;word-spacing:0px;fill:none;fill-opacity:1;stroke:#000000;stroke-opacity:1"
     id="path5637" />
  <path
     d="m 59.621222,14.324571 q 0,0.820312 -0.234375,1.476562 -0.228516,0.65625 -0.621094,1.101563 -0.416016,0.46289 -0.914062,0.697265 -0.498047,0.228516 -1.095704,0.228516 -0.55664,0 -0.972656,-0.134766 -0.416015,-0.128906 -0.820312,-0.351562 l -0.07031,0.304687 h -1.03125 V 8.529649 h 1.101563 v 3.257812 q 0.46289,-0.380859 0.984375,-0.621094 0.521484,-0.246093 1.171875,-0.246093 1.160156,0 1.828125,0.890625 0.673828,0.890625 0.673828,2.513672 z m -1.136719,0.0293 q 0,-1.171875 -0.386719,-1.77539 -0.386718,-0.609375 -1.248047,-0.609375 -0.480468,0 -0.972656,0.210937 -0.492187,0.205078 -0.914062,0.533203 v 3.75 q 0.46875,0.210938 0.802734,0.292969 0.339844,0.08203 0.767578,0.08203 0.914063,0 1.429688,-0.597656 0.521484,-0.603515 0.521484,-1.886718 z"
     style="font-style:normal;font-weight:normal;font-size:medium;line-height:1.25;font-family:sans-serif;letter-spacing:0px;word-spacing:0px;fill:none;fill-opacity:1;stroke:#000000;stroke-opacity:1"
     id="path5639" />
  <path
     d="m 66.974737,11.101914 -3.820312,8.958985 h -1.177734 l 1.21875,-2.730469 -2.607422,-6.228516 h 1.195312 l 2.009766,4.851563 2.027344,-4.851563 z"
     style="font-style:normal;font-weight:normal;font-size:medium;line-height:1.25;font-family:sans-serif;letter-spacing:0px;word-spacing:0px;fill:none;fill-opacity:1;stroke:#000000;stroke-opacity:1"
     id="path5641" />
  <path
     d="m 75.922003,15.379258 q 0,1.148438 -0.703125,1.769531 -0.697266,0.621094 -1.875,0.621094 -0.28125,0 -0.75,-0.05273 -0.46875,-0.04687 -0.785156,-0.117188 v -1.083984 h 0.06445 q 0.240234,0.08203 0.591797,0.169922 0.351562,0.08789 0.720703,0.08789 0.539062,0 0.855469,-0.123047 0.322265,-0.123046 0.474609,-0.351562 0.158203,-0.234375 0.199219,-0.574219 0.04687,-0.339844 0.04687,-0.785156 V 9.848008 H 72.916136 V 8.922227 h 3.005859 z"
     style="font-style:normal;font-weight:normal;font-size:medium;line-height:1.25;font-family:sans-serif;letter-spacing:0px;word-spacing:0px;fill:none;fill-opacity:1;stroke:#000000;stroke-opacity:1"
     id="path5643" />
  <path
     d="m 83.673956,14.377305 q 0,1.599609 -0.820312,2.525391 -0.820313,0.925781 -2.197266,0.925781 -1.388672,0 -2.208984,-0.925781 -0.814453,-0.925782 -0.814453,-2.525391 0,-1.599609 0.814453,-2.525391 0.820312,-0.93164 2.208984,-0.93164 1.376953,0 2.197266,0.93164 0.820312,0.925782 0.820312,2.525391 z m -1.136719,0 q 0,-1.271484 -0.498046,-1.886719 -0.498047,-0.621094 -1.382813,-0.621094 -0.896484,0 -1.394531,0.621094 -0.492188,0.615235 -0.492188,1.886719 0,1.230469 0.498047,1.869141 0.498047,0.632812 1.388672,0.632812 0.878906,0 1.376953,-0.626953 0.503906,-0.632813 0.503906,-1.875 z"
     style="font-style:normal;font-weight:normal;font-size:medium;line-height:1.25;font-family:sans-serif;letter-spacing:0px;word-spacing:0px;fill:none;fill-opacity:1;stroke:#000000;stroke-opacity:1"
     id="path5645" />
  <path
     d="m 90.863409,14.488633 h -4.822265 q 0,0.603516 0.18164,1.054688 0.181641,0.445312 0.498047,0.732421 0.304688,0.28125 0.720703,0.421875 0.421875,0.140625 0.925782,0.140625 0.667973,0 1.341793,-0.263671 0.67969,-0.269532 0.9668,-0.527344 h 0.0586 v 1.201172 q -0.55664,0.234375 -1.13671,0.392578 -0.58008,0.158203 -1.218755,0.158203 -1.628906,0 -2.542968,-0.878906 -0.914063,-0.884766 -0.914063,-2.507813 0,-1.605469 0.873047,-2.548828 0.878906,-0.943359 2.308594,-0.943359 1.324215,0 2.039065,0.773437 0.7207,0.773438 0.7207,2.197266 z m -1.07227,-0.84375 q -0.006,-0.867187 -0.43945,-1.341797 -0.42773,-0.474609 -1.306639,-0.474609 -0.884766,0 -1.412109,0.521484 -0.521485,0.521485 -0.591797,1.294922 z"
     style="font-style:normal;font-weight:normal;font-size:medium;line-height:1.25;font-family:sans-serif;letter-spacing:0px;word-spacing:0px;fill:none;fill-opacity:1;stroke:#000000;stroke-opacity:1"
     id="path5647" />
  <path
     d="m 93.711069,8.529649 -0.25196,3.392578 h -0.79687 l -0.25195,-3.392578 z"
     style="font-style:normal;font-weight:normal;font-size:medium;line-height:1.25;font-family:sans-serif;letter-spacing:0px;word-spacing:0px;fill:none;fill-opacity:1;stroke:#000000;stroke-opacity:1"
     id="path5649" />
  <path
     d="m 100.44349,15.760117 q 0,0.896485 -0.744141,1.470704 -0.73828,0.574218 -2.02149,0.574218 -0.72656,0 -1.33593,-0.169922 -0.60352,-0.175781 -1.01368,-0.380859 V 16.01793 h 0.0586 q 0.52148,0.392578 1.16015,0.626953 0.63868,0.228516 1.22461,0.228516 0.72657,0 1.13672,-0.234375 0.41016,-0.234375 0.41016,-0.738282 0,-0.386718 -0.22266,-0.585937 -0.22265,-0.199219 -0.85547,-0.339844 -0.23437,-0.05273 -0.61523,-0.123047 -0.375,-0.07031 -0.68555,-0.152343 -0.86133,-0.228516 -1.22461,-0.667969 -0.35742,-0.445313 -0.35742,-1.089844 0,-0.404297 0.16406,-0.761719 0.16993,-0.357422 0.50977,-0.638672 0.32812,-0.27539 0.83203,-0.433593 0.50977,-0.164063 1.13672,-0.164063 0.58594,0 1.18359,0.146485 0.60352,0.140625 1.001961,0.345703 v 1.177734 h -0.0586 q -0.421871,-0.310547 -1.025391,-0.521484 -0.60351,-0.216797 -1.18359,-0.216797 -0.60352,0 -1.01953,0.234375 -0.41602,0.228515 -0.41602,0.685547 0,0.404297 0.25195,0.609375 0.2461,0.205078 0.79688,0.333984 0.30469,0.07031 0.67969,0.140625 0.38086,0.07031 0.63281,0.128906 0.76758,0.175782 1.183591,0.603516 0.41602,0.433594 0.41602,1.148437 z"
     style="font-style:normal;font-weight:normal;font-size:medium;line-height:1.25;font-family:sans-serif;letter-spacing:0px;word-spacing:0px;fill:none;fill-opacity:1;stroke:#000000;stroke-opacity:1"
     id="path5651" />
  <path
     d="m 114.10169,17.646836 h -1.16015 v -7.517578 l -2.42579,5.115234 h -0.6914 l -2.40821,-5.115234 v 7.517578 h -1.08398 V 8.922227 h 1.58203 l 2.32617,4.857422 2.25,-4.857422 h 1.61133 z"
     style="font-style:normal;font-weight:normal;font-size:medium;line-height:1.25;font-family:sans-serif;letter-spacing:0px;word-spacing:0px;fill:none;fill-opacity:1;stroke:#000000;stroke-opacity:1"
     id="path5653" />
  <path
     d="m 121.45521,17.646836 h -1.09571 v -0.697265 q -0.14648,0.09961 -0.39843,0.28125 -0.2461,0.175781 -0.48047,0.28125 -0.27539,0.134765 -0.63281,0.222656 -0.35743,0.09375 -0.8379,0.09375 -0.88476,0 -1.5,-0.585938 -0.61523,-0.585937 -0.61523,-1.49414 0,-0.744141 0.31641,-1.201172 0.32226,-0.462891 0.91406,-0.726563 0.59766,-0.263672 1.43555,-0.357422 0.83789,-0.09375 1.79882,-0.140625 v -0.169921 q 0,-0.375 -0.13476,-0.621094 -0.12891,-0.246094 -0.375,-0.386719 -0.23438,-0.134766 -0.5625,-0.181641 -0.32813,-0.04687 -0.68555,-0.04687 -0.43359,0 -0.9668,0.117188 -0.5332,0.111328 -1.10156,0.328125 h -0.0586 v -1.119141 q 0.32226,-0.08789 0.93164,-0.193359 0.60937,-0.105469 1.20117,-0.105469 0.69141,0 1.20117,0.117188 0.51563,0.111328 0.89063,0.386718 0.36914,0.269532 0.5625,0.697266 0.19336,0.427734 0.19336,1.060547 z m -1.09571,-1.611328 v -1.822266 q -0.5039,0.0293 -1.18945,0.08789 -0.67969,0.05859 -1.07812,0.169922 -0.47461,0.134766 -0.76758,0.421875 -0.29297,0.28125 -0.29297,0.779297 0,0.5625 0.33984,0.849609 0.33985,0.28125 1.03711,0.28125 0.58008,0 1.06055,-0.222656 0.48047,-0.228516 0.89062,-0.544921 z"
     style="font-style:normal;font-weight:normal;font-size:medium;line-height:1.25;font-family:sans-serif;letter-spacing:0px;word-spacing:0px;fill:none;fill-opacity:1;stroke:#000000;stroke-opacity:1"
     id="path5655" />
  <path
     d="m 128.42786,17.23668 q -0.55078,0.263672 -1.04882,0.410156 -0.49219,0.146485 -1.04883,0.146485 -0.70899,0 -1.30078,-0.205079 -0.5918,-0.210937 -1.01368,-0.632812 -0.42773,-0.421875 -0.66211,-1.066406 -0.23437,-0.644532 -0.23437,-1.50586 0,-1.605468 0.87891,-2.519531 0.88476,-0.914062 2.33203,-0.914062 0.5625,0 1.10156,0.158203 0.54492,0.158203 0.99609,0.386718 v 1.22461 h -0.0586 q -0.50391,-0.392578 -1.04297,-0.603516 -0.5332,-0.210937 -1.04297,-0.210937 -0.9375,0 -1.48242,0.632812 -0.53906,0.626953 -0.53906,1.845703 0,1.183594 0.52734,1.822266 0.5332,0.632812 1.49414,0.632812 0.33399,0 0.67969,-0.08789 0.3457,-0.08789 0.62109,-0.228516 0.24024,-0.123047 0.45118,-0.257812 0.21093,-0.140625 0.33398,-0.240235 h 0.0586 z"
     style="font-style:normal;font-weight:normal;font-size:medium;line-height:1.25;font-family:sans-serif;letter-spacing:0px;word-spacing:0px;fill:none;fill-opacity:1;stroke:#000000;stroke-opacity:1"
     id="path5657" />
  <path
     d="m 135.31849,17.646836 h -1.10156 v -3.726562 q 0,-0.451172 -0.0527,-0.84375 -0.0527,-0.398438 -0.19336,-0.621094 -0.14648,-0.246094 -0.42187,-0.363281 -0.27539,-0.123047 -0.71485,-0.123047 -0.45117,0 -0.94336,0.222656 -0.49218,0.222656 -0.94336,0.568359 v 4.886719 h -1.10156 V 8.529649 h 1.10156 v 3.298828 q 0.51563,-0.427735 1.06641,-0.667969 0.55078,-0.240234 1.13086,-0.240234 1.06055,0 1.61719,0.638672 0.55664,0.638671 0.55664,1.839843 z"
     style="font-style:normal;font-weight:normal;font-size:medium;line-height:1.25;font-family:sans-serif;letter-spacing:0px;word-spacing:0px;fill:none;fill-opacity:1;stroke:#000000;stroke-opacity:1"
     id="path5659" />
  <path
     d="m 138.62318,10.006211 h -1.24219 V 8.863633 h 1.24219 z m -0.0703,7.640625 h -1.10156 v -6.544922 h 1.10156 z"
     style="font-style:normal;font-weight:normal;font-size:medium;line-height:1.25;font-family:sans-serif;letter-spacing:0px;word-spacing:0px;fill:none;fill-opacity:1;stroke:#000000;stroke-opacity:1"
     id="path5661" />
  <path
     d="m 146.17005,17.646836 h -1.10156 v -3.726562 q 0,-0.451172 -0.0527,-0.84375 -0.0527,-0.398438 -0.19336,-0.621094 -0.14648,-0.246094 -0.42187,-0.363281 -0.27539,-0.123047 -0.71484,-0.123047 -0.45118,0 -0.94336,0.222656 -0.49219,0.222656 -0.94336,0.568359 v 4.886719 h -1.10157 v -6.544922 h 1.10157 v 0.726563 q 0.51562,-0.427735 1.0664,-0.667969 0.55078,-0.240234 1.13086,-0.240234 1.06055,0 1.61719,0.638672 0.55664,0.638671 0.55664,1.839843 z"
     style="font-style:normal;font-weight:normal;font-size:medium;line-height:1.25;font-family:sans-serif;letter-spacing:0px;word-spacing:0px;fill:none;fill-opacity:1;stroke:#000000;stroke-opacity:1"
     id="path5663" />
  <path
     d="m 153.76966,14.488633 h -4.82227 q 0,0.603516 0.18165,1.054688 0.18164,0.445312 0.49804,0.732421 0.30469,0.28125 0.72071,0.421875 0.42187,0.140625 0.92578,0.140625 0.66797,0 1.34179,-0.263671 0.67969,-0.269532 0.9668,-0.527344 h 0.0586 v 1.201172 q -0.55664,0.234375 -1.13671,0.392578 -0.58008,0.158203 -1.21875,0.158203 -1.62891,0 -2.54297,-0.878906 -0.91407,-0.884766 -0.91407,-2.507813 0,-1.605469 0.87305,-2.548828 0.87891,-0.943359 2.30859,-0.943359 1.32422,0 2.03907,0.773437 0.7207,0.773438 0.7207,2.197266 z m -1.07227,-0.84375 q -0.006,-0.867187 -0.43945,-1.341797 -0.42773,-0.474609 -1.30664,-0.474609 -0.88476,0 -1.41211,0.521484 -0.52148,0.521485 -0.5918,1.294922 z"
     style="font-style:normal;font-weight:normal;font-size:medium;line-height:1.25;font-family:sans-serif;letter-spacing:0px;word-spacing:0px;fill:none;fill-opacity:1;stroke:#000000;stroke-opacity:1"
     id="path5665" />
</svg>
