<svg width="210" height="297" xmlns="http://www.w3.org/2000/svg">

 <metadata id="metadata5">image/svg+xml</metadata>
 <g>
  <rect fill="none" stroke="#0000ff" stroke-width="0.2" stroke-miterlimit="4" y="0.9" x="0.1" height="100" width="100" id="rect4485"/>
  <circle fill="none" stroke="#0000ff" stroke-width="0.2" stroke-miterlimit="4" r="24.9" cy="51.000008" cx="50" id="path4487"/>
  <path fill="none" fill-rule="evenodd" stroke="#000000" stroke-width="0.239902" d="m69.134537,76.811118c0.078455,0.061706 -0.077104,0.199395 -0.110057,0.212618c-0.33358,0.13382 -0.544029,-0.395815 -0.538306,-0.722333c0.016452,-0.939041 0.896276,-1.371574 1.545643,-1.223662c1.327803,0.302435 1.87052,2.189736 1.539325,3.648972c-0.568885,2.506508 -2.952806,3.468113 -4.817047,2.683008c-2.879755,-1.212765 -3.940998,-5.443358 -2.905476,-8.754218c1.489333,-4.761807 6.163856,-6.467894 9.812414,-4.588796c4.984876,2.567345 6.733854,10.091902 4.630502,15.943368c-2.76472,7.69136 -10.488684,10.346429 -16.472234,6.932811c-7.631283,-4.353638 -10.231582,-16.094438 -6.708093,-25.156479c4.386384,-11.281344 15.899295,-15.084692 24.755437,-9.707865c10.808684,6.562266 14.420453,23.421179 9.132835,36.349793" id="path4489"/>
 </g>
</svg>